<svg width="144" height="48" viewBox="0 0 144 48" fill="none" xmlns="http://www.w3.org/2000/svg">
<path d="M132.162 3.39297e-05H11.4416C11.0016 3.39297e-05 10.5668 3.39298e-05 10.1279 0.00243393C9.76056 0.00483393 9.39611 0.0118059 9.0252 0.0176739C8.21942 0.0271561 7.41553 0.0980455 6.62052 0.229726C5.82663 0.364273 5.05761 0.617933 4.33946 0.982126C3.6222 1.3494 2.96681 1.82664 2.39708 2.39652C1.82436 2.9648 1.34696 3.62165 0.98322 4.34183C0.61848 5.06056 0.365569 5.83076 0.23322 6.62581C0.0996131 7.41986 0.0277181 8.22306 0.01818 9.02821C0.007044 9.39613 0.005868 9.76527 0 10.1332V37.8704C0.005868 38.243 0.007044 38.6039 0.01818 38.9766C0.027721 39.7817 0.0996161 40.5849 0.23322 41.3789C0.365203 42.1744 0.61813 42.9451 0.98322 43.6641C1.34679 44.3819 1.82427 45.0361 2.39708 45.6012C2.96465 46.1737 3.62046 46.6512 4.33946 47.0157C5.0576 47.3808 5.82654 47.636 6.62052 47.7726C7.41566 47.9033 8.21947 47.9742 9.0252 47.9848C9.39611 47.993 9.76056 47.9976 10.1279 47.9976C10.5668 48 11.0016 48 11.4416 48H132.162C132.593 48 133.031 48 133.463 47.9976C133.828 47.9976 134.203 47.993 134.569 47.9848C135.373 47.9747 136.175 47.9038 136.969 47.7726C137.765 47.6351 138.537 47.3799 139.259 47.0157C139.977 46.651 140.632 46.1735 141.199 45.6012C141.771 45.0339 142.249 44.3802 142.617 43.6641C142.98 42.9445 143.23 42.174 143.36 41.3789C143.494 40.5848 143.568 39.7818 143.583 38.9766C143.588 38.6039 143.588 38.243 143.588 37.8704C143.597 37.4344 143.597 37.0008 143.597 36.5578V11.4434C143.597 11.0039 143.597 10.568 143.588 10.1332C143.588 9.76527 143.588 9.39613 143.583 9.02816C143.568 8.22294 143.494 7.41992 143.36 6.62576C143.23 5.83117 142.979 5.06104 142.617 4.34178C141.876 2.89827 140.702 1.72326 139.259 0.982018C138.537 0.618715 137.765 0.365122 136.969 0.229618C136.175 0.0973573 135.373 0.0264432 134.569 0.0175059C134.203 0.0116499 133.828 0.00461793 133.463 0.00227793C133.031 -0.00012207 132.593 -0.00012207 132.162 -0.00012207V3.39297e-05Z" fill="black"/>
<path d="M10.1338 46.95C9.76818 46.95 9.41139 46.9453 9.04864 46.9371C8.29718 46.9274 7.54748 46.8619 6.80568 46.7414C6.11398 46.6223 5.44392 46.4007 4.81759 46.084C4.197 45.7698 3.63097 45.3579 3.14119 44.864C2.64432 44.376 2.23065 43.8099 1.91658 43.1882C1.59904 42.5625 1.37929 41.8919 1.26498 41.1996C1.14152 40.4557 1.07473 39.7036 1.06518 38.9496C1.05757 38.6965 1.04761 37.8539 1.04761 37.8539V10.1332C1.04761 10.1332 1.05822 9.3035 1.06524 9.05975C1.07439 8.30697 1.14079 7.55597 1.26387 6.81326C1.3784 6.11909 1.59832 5.44649 1.91602 4.81874C2.22894 4.19752 2.64031 3.63102 3.13419 3.1412C3.62752 2.64673 4.19535 2.23271 4.817 1.91424C5.44189 1.5985 6.11069 1.37847 6.80098 1.26151C7.54522 1.13979 8.29753 1.07398 9.0516 1.06464L10.1344 1.04999H133.457L134.552 1.06523C135.3 1.07411 136.045 1.13933 136.782 1.26034C137.48 1.37876 138.156 1.60033 138.788 1.91776C140.033 2.55957 141.046 3.57498 141.686 4.82167C141.998 5.44508 142.215 6.1122 142.328 6.80038C142.452 7.54918 142.522 8.30607 142.536 9.06503C142.54 9.40487 142.54 9.76991 142.54 10.1332C142.549 10.5832 142.549 11.0115 142.549 11.4433V36.5578C142.549 36.9937 142.549 37.4191 142.54 37.848C142.54 38.2382 142.54 38.5957 142.535 38.9636C142.521 39.709 142.453 40.4524 142.33 41.1878C142.218 41.8851 142 42.561 141.682 43.1918C141.366 43.8067 140.954 44.3679 140.463 44.8547C139.973 45.3512 139.406 45.7655 138.784 46.0817C138.154 46.4009 137.479 46.6233 136.782 46.7414C136.041 46.8626 135.291 46.928 134.539 46.9371C134.188 46.9453 133.82 46.95 133.463 46.95L132.162 46.9524L10.1338 46.95Z" fill="white"/>
<path d="M29.996 23.8672C30.0094 22.8257 30.286 21.8044 30.8002 20.8985C31.3143 19.9926 32.0493 19.2315 32.9366 18.686C32.3729 17.8809 31.6293 17.2183 30.7647 16.7509C29.9001 16.2835 28.9385 16.0242 27.9562 15.9934C25.8607 15.7735 23.8292 17.2474 22.7614 17.2474C21.6729 17.2474 20.0288 16.0153 18.2584 16.0517C17.1133 16.0887 15.9972 16.4217 15.0191 17.0183C14.0409 17.6148 13.2339 18.4546 12.6768 19.4558C10.2634 23.6342 12.0636 29.775 14.3754 33.1526C15.532 34.8064 16.8838 36.6538 18.6526 36.5883C20.3835 36.5165 21.03 35.4846 23.1193 35.4846C25.1892 35.4846 25.7957 36.5883 27.6004 36.5467C29.4577 36.5165 30.6279 34.8855 31.744 33.2159C32.5751 32.0375 33.2146 30.735 33.6388 29.3569C32.5598 28.9005 31.6389 28.1365 30.9911 27.1603C30.3433 26.1841 29.9972 25.0388 29.996 23.8672Z" fill="black"/>
<path d="M26.5873 13.7722C27.6 12.5565 28.0989 10.9939 27.9781 9.41632C26.4309 9.57882 25.0018 10.3183 23.9754 11.4873C23.4736 12.0584 23.0893 12.7228 22.8444 13.4426C22.5995 14.1623 22.4989 14.9233 22.5482 15.6819C23.3221 15.6899 24.0877 15.5221 24.7873 15.1913C25.4869 14.8606 26.1024 14.3753 26.5873 13.7722Z" fill="black"/>
<path d="M50.7621 32.5675H45.0821L43.718 36.5953H41.3121L46.6922 21.6937H49.1918L54.5719 36.5953H52.125L50.7621 32.5675ZM45.6703 30.7089H50.1727L47.9532 24.1722H47.891L45.6703 30.7089Z" fill="black"/>
<path d="M66.191 31.1636C66.191 34.5398 64.384 36.7089 61.6571 36.7089C60.9663 36.7451 60.2793 36.5859 59.6747 36.2498C59.0702 35.9136 58.5725 35.414 58.2387 34.8081H58.1871V40.1894H55.957V25.7308H58.1156V27.5378H58.1566C58.5058 26.9349 59.0119 26.4378 59.621 26.0996C60.2302 25.7614 60.9196 25.5947 61.616 25.6171C64.3735 25.6171 66.191 27.7968 66.191 31.1636ZM63.8989 31.1636C63.8989 28.964 62.7621 27.5179 61.0278 27.5179C59.3239 27.5179 58.1778 28.9945 58.1778 31.1636C58.1778 33.3527 59.3239 34.8187 61.0278 34.8187C62.7621 34.8187 63.8988 33.3831 63.8988 31.1636H63.8989Z" fill="black"/>
<path d="M78.1494 31.1636C78.1494 34.5398 76.3418 36.7089 73.6148 36.7089C72.924 36.7451 72.237 36.5859 71.6325 36.2498C71.0279 35.9136 70.5303 35.414 70.1965 34.8081H70.1449V40.1894H67.9148V25.7308H70.0734V27.5378H70.1144C70.4636 26.9349 70.9696 26.4378 71.5788 26.0996C72.1879 25.7614 72.8774 25.5947 73.5738 25.6171C76.3312 25.6171 78.1494 27.7968 78.1494 31.1636ZM75.8566 31.1636C75.8566 28.964 74.7199 27.5179 72.9855 27.5179C71.2816 27.5179 70.1355 28.9945 70.1355 31.1636C70.1355 33.3527 71.2816 34.8187 72.9855 34.8187C74.7199 34.8187 75.8566 33.3831 75.8566 31.1636Z" fill="black"/>
<path d="M86.0514 32.4434C86.2167 33.9211 87.6522 34.8914 89.6139 34.8914C91.4936 34.8914 92.846 33.9211 92.846 32.5886C92.846 31.432 92.0303 30.7394 90.0991 30.2648L88.1678 29.7996C85.4315 29.1386 84.1612 27.8589 84.1612 25.7824C84.1612 23.2113 86.4018 21.4453 89.5823 21.4453C92.7323 21.4453 94.8909 23.2113 94.9636 25.7824H92.7124C92.5776 24.2953 91.3483 23.3976 89.5518 23.3976C87.7553 23.3976 86.526 24.3058 86.526 25.6277C86.526 26.6812 87.3112 27.3011 89.2319 27.7757L90.8737 28.1788C93.9311 28.9019 95.2002 30.13 95.2002 32.3097C95.2002 35.0976 92.9807 36.8437 89.4486 36.8437C86.1439 36.8437 83.9127 35.1386 83.7686 32.4433L86.0514 32.4434Z" fill="black"/>
<path d="M100.015 23.1598V25.7309H102.081V27.4969H100.015V33.4864C100.015 34.4168 100.429 34.8504 101.337 34.8504C101.583 34.8461 101.827 34.8289 102.071 34.7988V36.5543C101.663 36.6306 101.247 36.6651 100.832 36.6574C98.6326 36.6574 97.7747 35.8312 97.7747 33.7242V27.4969H96.1951V25.7309H97.7747V23.1598H100.015Z" fill="black"/>
<path d="M103.277 31.1637C103.277 27.7453 105.29 25.5973 108.429 25.5973C111.579 25.5973 113.583 27.7453 113.583 31.1637C113.583 34.5914 111.59 36.7301 108.429 36.7301C105.27 36.7301 103.277 34.5914 103.277 31.1637ZM111.311 31.1637C111.311 28.8188 110.236 27.4348 108.429 27.4348C106.622 27.4348 105.548 28.8293 105.548 31.1637C105.548 33.518 106.622 34.8914 108.429 34.8914C110.236 34.8914 111.311 33.518 111.311 31.1637H111.311Z" fill="black"/>
<path d="M115.422 25.7309H117.549V27.5801H117.601C117.745 27.0025 118.083 26.4921 118.559 26.1347C119.035 25.7772 119.619 25.5945 120.214 25.6172C120.471 25.6163 120.727 25.6442 120.978 25.7004V27.7863C120.654 27.6872 120.315 27.6417 119.976 27.6516C119.652 27.6384 119.329 27.6955 119.029 27.819C118.729 27.9425 118.46 28.1294 118.239 28.3668C118.018 28.6043 117.852 28.8867 117.75 29.1947C117.649 29.5027 117.616 29.829 117.652 30.1512V36.5953H115.422L115.422 25.7309Z" fill="black"/>
<path d="M131.26 33.4043C130.96 35.3766 129.039 36.7301 126.582 36.7301C123.421 36.7301 121.46 34.6125 121.46 31.2153C121.46 27.8074 123.432 25.5973 126.488 25.5973C129.494 25.5973 131.384 27.6621 131.384 30.9563V31.7203H123.711V31.8551C123.675 32.2549 123.725 32.6577 123.858 33.0367C123.99 33.4158 124.201 33.7623 124.478 34.0534C124.754 34.3444 125.089 34.5733 125.461 34.7249C125.833 34.8765 126.232 34.9472 126.633 34.9324C127.16 34.9818 127.689 34.8598 128.141 34.5844C128.593 34.3091 128.944 33.8952 129.142 33.4043L131.26 33.4043ZM123.721 30.1617H129.153C129.173 29.8022 129.118 29.4425 128.993 29.105C128.867 28.7676 128.673 28.4597 128.423 28.2008C128.173 27.9419 127.872 27.7375 127.539 27.6004C127.206 27.4633 126.848 27.3966 126.488 27.4043C126.125 27.4022 125.765 27.4719 125.429 27.6096C125.093 27.7473 124.787 27.9502 124.53 28.2065C124.273 28.4629 124.069 28.7677 123.93 29.1033C123.791 29.4388 123.72 29.7986 123.721 30.1618V30.1617Z" fill="black"/>
<path d="M45.3914 10.4772C45.8589 10.4437 46.3281 10.5143 46.765 10.684C47.2019 10.8538 47.5958 11.1183 47.9181 11.4587C48.2404 11.799 48.4831 12.2067 48.6288 12.6522C48.7745 13.0977 48.8195 13.57 48.7605 14.035C48.7605 16.3225 47.5242 17.6374 45.3914 17.6374H42.8051V10.4772H45.3914ZM43.9172 16.6248H45.2672C45.6012 16.6448 45.9356 16.59 46.2458 16.4645C46.5561 16.339 46.8344 16.1458 47.0606 15.8991C47.2868 15.6525 47.4551 15.3585 47.5534 15.0385C47.6516 14.7186 47.6773 14.3807 47.6285 14.0496C47.6737 13.7198 47.6455 13.3841 47.5457 13.0665C47.446 12.7489 47.2772 12.4573 47.0516 12.2126C46.8259 11.9679 46.5489 11.7761 46.2404 11.651C45.9319 11.5259 45.5995 11.4706 45.2672 11.4891H43.9172V16.6248Z" fill="black"/>
<path d="M50.0168 14.9332C49.9828 14.5781 50.0235 14.2198 50.1361 13.8814C50.2487 13.5429 50.4308 13.2317 50.6707 12.9677C50.9107 12.7037 51.2031 12.4928 51.5293 12.3485C51.8556 12.2041 52.2083 12.1296 52.5651 12.1296C52.9218 12.1296 53.2746 12.2041 53.6008 12.3485C53.927 12.4928 54.2195 12.7037 54.4594 12.9677C54.6993 13.2317 54.8814 13.5429 54.994 13.8814C55.1067 14.2198 55.1473 14.5781 55.1133 14.9332C55.1479 15.2887 55.1078 15.6475 54.9955 15.9865C54.8832 16.3255 54.7012 16.6373 54.4612 16.9018C54.2212 17.1663 53.9285 17.3777 53.602 17.5223C53.2754 17.667 52.9222 17.7417 52.5651 17.7417C52.2079 17.7417 51.8547 17.667 51.5282 17.5223C51.2016 17.3777 50.9089 17.1663 50.6689 16.9018C50.429 16.6373 50.247 16.3255 50.1346 15.9865C50.0223 15.6475 49.9822 15.2887 50.0168 14.9332ZM54.0164 14.9332C54.0164 13.7619 53.4902 13.077 52.5668 13.077C51.6399 13.077 51.1184 13.7619 51.1184 14.9332C51.1184 16.1139 51.6399 16.7936 52.5668 16.7936C53.4903 16.7936 54.0164 16.1092 54.0164 14.9332H54.0164Z" fill="black"/>
<path d="M61.8879 17.6373H60.7816L59.6648 13.6576H59.5805L58.4683 17.6373H57.3726L55.8832 12.2338H56.9648L57.9328 16.357H58.0125L59.1234 12.2338H60.1465L61.2574 16.357H61.3418L62.3051 12.2338H63.3715L61.8879 17.6373Z" fill="black"/>
<path d="M64.6243 12.2338H65.6508V13.0922H65.7305C65.8657 12.7839 66.0937 12.5254 66.3828 12.3528C66.6718 12.1803 67.0075 12.1022 67.343 12.1295C67.6059 12.1097 67.8699 12.1493 68.1155 12.2455C68.361 12.3416 68.5817 12.4917 68.7613 12.6847C68.941 12.8777 69.0749 13.1087 69.1531 13.3605C69.2313 13.6122 69.2519 13.8784 69.2133 14.1392V17.6372H68.1469V14.407C68.1469 13.5387 67.7696 13.1068 66.9809 13.1068C66.8024 13.0985 66.6242 13.1289 66.4585 13.1959C66.2929 13.2629 66.1436 13.3649 66.0211 13.495C65.8985 13.625 65.8056 13.78 65.7485 13.9494C65.6915 14.1188 65.6718 14.2984 65.6907 14.4761V17.6373H64.6243L64.6243 12.2338Z" fill="black"/>
<path d="M70.9125 10.1244H71.9789V17.6373H70.9125V10.1244Z" fill="black"/>
<path d="M73.4614 14.9333C73.4274 14.5781 73.4681 14.2198 73.5807 13.8813C73.6933 13.5429 73.8755 13.2316 74.1154 12.9676C74.3554 12.7037 74.6479 12.4927 74.9741 12.3484C75.3004 12.2041 75.6532 12.1295 76.0099 12.1295C76.3666 12.1295 76.7195 12.2041 77.0457 12.3484C77.3719 12.4927 77.6644 12.7037 77.9044 12.9676C78.1443 13.2316 78.3265 13.5429 78.4391 13.8813C78.5517 14.2198 78.5924 14.5781 78.5584 14.9333C78.593 15.2888 78.5528 15.6475 78.4405 15.9866C78.3281 16.3256 78.1461 16.6374 77.9061 16.9019C77.6661 17.1663 77.3734 17.3777 77.0468 17.5223C76.7203 17.667 76.3671 17.7417 76.0099 17.7417C75.6527 17.7417 75.2995 17.667 74.973 17.5223C74.6464 17.3777 74.3537 17.1663 74.1137 16.9019C73.8737 16.6374 73.6917 16.3256 73.5793 15.9866C73.467 15.6475 73.4268 15.2888 73.4614 14.9333ZM77.461 14.9333C77.461 13.762 76.9348 13.077 76.0114 13.077C75.0844 13.077 74.563 13.762 74.563 14.9333C74.563 16.114 75.0844 16.7936 76.0114 16.7936C76.9348 16.7936 77.461 16.1092 77.461 14.9333H77.461Z" fill="black"/>
<path d="M79.681 16.1092C79.681 15.1365 80.4053 14.5758 81.6908 14.4961L83.1545 14.4117V13.9453C83.1545 13.3746 82.7771 13.0524 82.0482 13.0524C81.4529 13.0524 81.0404 13.2709 80.922 13.653H79.8896C79.9986 12.7248 80.8717 12.1295 82.0974 12.1295C83.4521 12.1295 84.2162 12.8039 84.2162 13.9453V17.6373H83.1896V16.878H83.1052C82.934 17.1503 82.6935 17.3724 82.4084 17.5215C82.1232 17.6705 81.8036 17.7412 81.4822 17.7264C81.2554 17.7499 81.0261 17.7257 80.8092 17.6553C80.5923 17.5849 80.3925 17.4698 80.2228 17.3174C80.0531 17.165 79.9172 16.9788 79.8239 16.7707C79.7306 16.5626 79.6819 16.3373 79.681 16.1092ZM83.1545 15.6475V15.1957L81.8349 15.2801C81.0908 15.3299 80.7533 15.583 80.7533 16.0594C80.7533 16.5457 81.1752 16.8287 81.7553 16.8287C81.9253 16.8459 82.097 16.8288 82.2602 16.7783C82.4234 16.7277 82.5747 16.6449 82.7053 16.5347C82.8358 16.4245 82.9429 16.2892 83.02 16.1367C83.0972 15.9843 83.1429 15.8179 83.1545 15.6475Z" fill="black"/>
<path d="M85.6178 14.9332C85.6178 13.2258 86.4955 12.1441 87.8608 12.1441C88.1985 12.1286 88.5336 12.2095 88.8271 12.3773C89.1205 12.5452 89.3601 12.7931 89.5178 13.0921H89.5975V10.1244H90.6639V17.6373H89.642V16.7836H89.5577C89.3877 17.0806 89.1398 17.3254 88.8407 17.4916C88.5416 17.6577 88.2027 17.7389 87.8608 17.7263C86.4862 17.7264 85.6178 16.6447 85.6178 14.9332ZM86.7194 14.9332C86.7194 16.0793 87.2596 16.7689 88.1632 16.7689C89.062 16.7689 89.6174 16.0693 89.6174 14.9379C89.6174 13.8117 89.0561 13.1021 88.1632 13.1021C87.2655 13.1021 86.7194 13.7965 86.7194 14.9332H86.7194Z" fill="black"/>
<path d="M95.076 14.9332C95.042 14.5781 95.0827 14.2198 95.1953 13.8814C95.3079 13.5429 95.49 13.2317 95.7299 12.9677C95.9699 12.7037 96.2623 12.4928 96.5885 12.3485C96.9147 12.2041 97.2675 12.1296 97.6243 12.1296C97.981 12.1296 98.3338 12.2041 98.66 12.3485C98.9862 12.4928 99.2787 12.7037 99.5186 12.9677C99.7585 13.2317 99.9406 13.5429 100.053 13.8814C100.166 14.2198 100.206 14.5781 100.173 14.9332C100.207 15.2887 100.167 15.6475 100.055 15.9865C99.9424 16.3255 99.7604 16.6373 99.5204 16.9018C99.2804 17.1663 98.9877 17.3777 98.6612 17.5223C98.3346 17.667 97.9814 17.7417 97.6243 17.7417C97.2671 17.7417 96.9139 17.667 96.5874 17.5223C96.2608 17.3777 95.9681 17.1663 95.7281 16.9018C95.4882 16.6373 95.3062 16.3255 95.1938 15.9865C95.0815 15.6475 95.0414 15.2887 95.076 14.9332ZM99.0756 14.9332C99.0756 13.7619 98.5494 13.077 97.626 13.077C96.6991 13.077 96.1776 13.7619 96.1776 14.9332C96.1776 16.1139 96.6991 16.7936 97.626 16.7936C98.5495 16.7936 99.0756 16.1092 99.0756 14.9332Z" fill="black"/>
<path d="M101.603 12.2338H102.63V13.0922H102.71C102.845 12.7839 103.073 12.5254 103.362 12.3528C103.651 12.1803 103.986 12.1022 104.322 12.1295C104.585 12.1097 104.849 12.1493 105.094 12.2455C105.34 12.3416 105.561 12.4917 105.74 12.6847C105.92 12.8777 106.054 13.1087 106.132 13.3605C106.21 13.6122 106.231 13.8784 106.192 14.1392V17.6372H105.126V14.407C105.126 13.5387 104.749 13.1068 103.96 13.1068C103.781 13.0985 103.603 13.1289 103.438 13.1959C103.272 13.2629 103.123 13.3649 103 13.495C102.878 13.625 102.785 13.78 102.728 13.9494C102.671 14.1188 102.651 14.2984 102.67 14.4761V17.6373H101.603V12.2338Z" fill="black"/>
<path d="M112.218 10.8885V12.2584H113.389V13.1567H112.218V15.9352C112.218 16.5012 112.451 16.749 112.982 16.749C113.118 16.7486 113.254 16.7404 113.389 16.7244V17.6127C113.197 17.647 113.003 17.6652 112.809 17.6672C111.623 17.6672 111.151 17.25 111.151 16.2082V13.1566H110.293V12.2584H111.151V10.8885H112.218Z" fill="black"/>
<path d="M114.845 10.1244H115.902V13.1021H115.987C116.129 12.7909 116.363 12.531 116.658 12.3578C116.953 12.1846 117.294 12.1065 117.634 12.1342C117.896 12.1199 118.157 12.1636 118.4 12.262C118.643 12.3605 118.861 12.5113 119.039 12.7037C119.216 12.8961 119.35 13.1254 119.428 13.3751C119.507 13.6249 119.53 13.889 119.495 14.1486V17.6373H118.428V14.4117C118.428 13.5486 118.026 13.1115 117.272 13.1115C117.089 13.0965 116.905 13.1217 116.732 13.1853C116.56 13.249 116.403 13.3496 116.274 13.4801C116.144 13.6105 116.045 13.7678 115.982 13.9407C115.92 14.1137 115.896 14.2982 115.912 14.4814V17.6373H114.846L114.845 10.1244Z" fill="black"/>
<path d="M125.714 16.1783C125.569 16.6722 125.255 17.0993 124.827 17.3851C124.399 17.6709 123.884 17.7971 123.372 17.7416C123.016 17.751 122.662 17.6828 122.335 17.5418C122.008 17.4007 121.716 17.1902 121.478 16.9249C121.241 16.6595 121.064 16.3456 120.96 16.005C120.856 15.6645 120.827 15.3053 120.876 14.9525C120.829 14.5987 120.858 14.2388 120.962 13.8971C121.065 13.5555 121.241 13.2402 121.478 12.9725C121.714 12.7048 122.005 12.491 122.331 12.3456C122.657 12.2001 123.01 12.1264 123.367 12.1295C124.871 12.1295 125.778 13.1567 125.778 14.8535V15.2256H121.962V15.2854C121.946 15.4836 121.971 15.6832 122.036 15.8713C122.101 16.0594 122.204 16.2319 122.34 16.3776C122.475 16.5234 122.639 16.6392 122.822 16.7177C123.005 16.7962 123.202 16.8356 123.401 16.8334C123.657 16.864 123.915 16.818 124.144 16.7014C124.373 16.5847 124.562 16.4027 124.687 16.1783L125.714 16.1783ZM121.962 14.4369H124.692C124.705 14.2556 124.68 14.0734 124.619 13.9021C124.558 13.7309 124.462 13.5743 124.337 13.4425C124.211 13.3106 124.06 13.2065 123.892 13.1367C123.724 13.0668 123.543 13.0329 123.362 13.0371C123.177 13.0348 122.994 13.0694 122.823 13.139C122.652 13.2085 122.497 13.3115 122.367 13.442C122.236 13.5724 122.133 13.7277 122.064 13.8985C121.995 14.0694 121.96 14.2525 121.962 14.4369H121.962Z" fill="black"/>
</svg>
