<svg width="163" height="48" viewBox="0 0 163 48" fill="none" xmlns="http://www.w3.org/2000/svg">
<g clip-path="url(#clip0_3_832)">
<path fill-rule="evenodd" clip-rule="evenodd" d="M156.595 48H6.59913C3.29106 48 0.596924 45.2948 0.596924 42V6C0.596924 2.69327 3.29106 0 6.59913 0H156.595C159.9 0 162.597 2.69327 162.597 6V42C162.597 45.2948 159.9 48 156.595 48Z" fill="white"/>
<path fill-rule="evenodd" clip-rule="evenodd" d="M156.595 0.960598C159.369 0.960598 161.64 3.22594 161.64 6V42C161.64 44.7741 159.384 47.0394 156.595 47.0394H6.59913C3.82453 47.0394 1.55358 44.7741 1.55358 42V6C1.55358 3.22594 3.80962 0.960598 6.59913 0.960598H156.595ZM156.595 0H6.59913C3.29106 0 0.596924 2.70524 0.596924 6V42C0.596924 45.3067 3.29106 48 6.59913 48H156.595C159.9 48 162.597 45.3067 162.597 42V6C162.597 2.70524 159.9 0 156.595 0Z" fill="black"/>
<path d="M85.9389 15.8782C84.8571 15.8782 83.9451 15.4981 83.2239 14.75C82.5087 14.0228 82.1093 13.0203 82.1272 11.9969C82.1272 10.9046 82.4967 9.97994 83.2239 9.24677C83.9421 8.49864 84.8541 8.11859 85.9359 8.11859C87.0058 8.11859 87.9178 8.49864 88.6509 9.24677C89.3781 10.0039 89.7476 10.9286 89.7476 11.9969C89.7357 13.0922 89.3662 14.0168 88.6509 14.747C87.9327 15.5011 87.0207 15.8782 85.9389 15.8782ZM53.7495 15.8782C52.6915 15.8782 51.7736 15.5041 51.0226 14.765C50.2775 14.0288 49.899 13.0981 49.899 11.9999C49.899 10.9016 50.2775 9.97096 51.0226 9.2348C51.7587 8.49565 52.6766 8.12158 53.7495 8.12158C54.274 8.12158 54.7836 8.22632 55.2724 8.43879C55.7522 8.64527 56.1426 8.92657 56.4317 9.27071L56.5032 9.35749L55.6956 10.1535L55.6121 10.0548C55.1562 9.51011 54.5452 9.24378 53.7376 9.24378C53.0164 9.24378 52.3875 9.50114 51.869 10.0099C51.3474 10.5216 51.0822 11.1919 51.0822 12.0029C51.0822 12.8139 51.3474 13.4842 51.869 13.9959C52.3875 14.5046 53.0164 14.762 53.7376 14.762C54.5065 14.762 55.1532 14.5046 55.6568 13.9959C55.9549 13.6966 56.1396 13.2777 56.2052 12.748H53.6154V11.6288H57.3168L57.3317 11.7306C57.3585 11.9191 57.3854 12.1136 57.3854 12.2932C57.3854 13.3256 57.0754 14.1605 56.4615 14.7769C55.7641 15.5071 54.8522 15.8782 53.7495 15.8782ZM96.5485 15.7196H95.4071L91.9113 10.1026L91.9411 11.1141V15.7166H90.7996V8.28019H92.102L92.1378 8.33705L95.4249 13.6278L95.3951 12.6193V8.28019H96.5485V15.7196ZM77.3618 15.7196H76.2055V9.39939H74.1998V8.28019H79.3645V9.39939H77.3588V15.7196H77.3618ZM73.258 15.7196H72.1047V8.28019H73.258V15.7196ZM66.7761 15.7196H65.6227V9.39939H63.617V8.28019H68.7817V9.39939H66.7761V15.7196ZM62.8869 15.7076H58.4642V8.28019H62.8869V9.39939H59.6205V11.4403H62.568V12.5475H59.6205V14.5884H62.8869V15.7076ZM84.0703 13.9809C84.5859 14.4986 85.2117 14.759 85.9389 14.759C86.6869 14.759 87.2979 14.5046 87.8075 13.9809C88.3141 13.4722 88.5704 12.8049 88.5704 11.9999C88.5704 11.1949 88.3141 10.5246 87.8105 10.0188C87.2949 9.50113 86.6661 9.24079 85.9419 9.24079C85.1938 9.24079 84.5829 9.49515 84.0763 10.0188C83.5696 10.5276 83.3133 11.1949 83.3133 11.9999C83.3133 12.8049 83.5666 13.4752 84.0703 13.9809Z" fill="black"/>
<path fill-rule="evenodd" clip-rule="evenodd" d="M82.02 26.1067C79.2036 26.1067 76.9208 28.2524 76.9208 31.212C76.9208 34.1446 79.2185 36.3172 82.02 36.3172C84.8363 36.3172 87.1192 34.1566 87.1192 31.212C87.1192 28.2524 84.8363 26.1067 82.02 26.1067ZM82.02 34.2943C80.4792 34.2943 79.153 33.0135 79.153 31.2C79.153 29.3596 80.4822 28.1057 82.02 28.1057C83.5607 28.1057 84.887 29.3596 84.887 31.2C84.8899 33.0254 83.5607 34.2943 82.02 34.2943ZM70.8947 26.1067C68.0784 26.1067 65.7955 28.2524 65.7955 31.212C65.7955 34.1446 68.0933 36.3172 70.8947 36.3172C73.711 36.3172 75.9939 34.1566 75.9939 31.212C75.9939 28.2524 73.7081 26.1067 70.8947 26.1067ZM70.8947 34.2943C69.3539 34.2943 68.0277 33.0135 68.0277 31.2C68.0277 29.3596 69.3569 28.1057 70.8947 28.1057C72.4355 28.1057 73.7617 29.3596 73.7617 31.2C73.7617 33.0254 72.4355 34.2943 70.8947 34.2943ZM57.6564 27.6658V29.8264H62.8212C62.6633 31.0384 62.2639 31.9332 61.653 32.5466C60.896 33.3067 59.7277 34.1327 57.6684 34.1327C54.4944 34.1327 52.0119 31.5591 52.0119 28.3721C52.0119 25.185 54.4944 22.6115 57.6684 22.6115C59.382 22.6115 60.6307 23.2908 61.5576 24.1586L63.0835 22.6264C61.796 21.3875 60.0824 20.4389 57.6803 20.4389C53.3261 20.4389 49.6724 24 49.6724 28.3601C49.6724 32.7322 53.3232 36.2813 57.6803 36.2813C60.0317 36.2813 61.796 35.5092 63.1908 34.0549C64.6123 32.6274 65.0624 30.6135 65.0624 28.9885C65.0624 28.4828 65.0236 28.0279 64.9431 27.6419H57.6535C57.6564 27.6389 57.6564 27.6658 57.6564 27.6658ZM111.805 29.3476C111.378 28.2015 110.091 26.0948 107.45 26.0948C104.834 26.0948 102.658 28.1626 102.658 31.2C102.658 34.0668 104.81 36.3052 107.704 36.3052C110.028 36.3052 111.381 34.8778 111.939 34.0399L110.213 32.8788C109.641 33.7317 108.845 34.2913 107.716 34.2913C106.574 34.2913 105.775 33.7706 105.245 32.7441L112.043 29.9162C112.043 29.9192 111.805 29.3476 111.805 29.3476ZM104.872 31.0534C104.819 29.0813 106.398 28.0788 107.528 28.0788C108.419 28.0788 109.161 28.5187 109.414 29.1591L104.872 31.0534ZM99.3501 36H101.582V21.0015H99.3501V36ZM95.6844 27.2409H95.6039C95.1003 26.6394 94.1436 26.0948 92.9217 26.0948C90.3855 26.0948 88.049 28.3362 88.049 31.215C88.049 34.0818 90.3736 36.2963 92.9217 36.2963C94.1287 36.2963 95.1003 35.7486 95.6039 35.1352H95.6844V35.8683C95.6844 37.8165 94.6473 38.8668 92.9753 38.8668C91.6074 38.8668 90.758 37.8793 90.4123 37.0534L88.4722 37.8673C89.0295 39.214 90.5166 40.8808 92.9724 40.8808C95.589 40.8808 97.8063 39.3337 97.8063 35.5601V26.4H95.6963V27.2409C95.6993 27.2409 95.6844 27.2409 95.6844 27.2409ZM93.1214 34.2943C91.5806 34.2943 90.2931 33.0015 90.2931 31.215C90.2931 29.4135 91.5806 28.1087 93.1214 28.1087C94.6473 28.1087 95.8304 29.4284 95.8304 31.215C95.8453 33.0015 94.6502 34.2943 93.1214 34.2943ZM122.256 21.0015H116.919V36H119.151V30.3202H122.259C124.73 30.3202 127.159 28.5217 127.159 25.6668C127.159 22.812 124.739 21.0015 122.256 21.0015ZM122.322 28.2254H119.148V23.0783H122.322C123.994 23.0783 124.938 24.4638 124.938 25.6519C124.938 26.8279 123.982 28.2254 122.322 28.2254ZM136.105 26.0798C134.484 26.0798 132.812 26.801 132.121 28.3721L134.1 29.198C134.526 28.3721 135.307 28.0908 136.132 28.0908C137.289 28.0908 138.457 28.785 138.484 30.0239V30.1825C138.084 29.9551 137.208 29.608 136.159 29.608C134.022 29.608 131.856 30.781 131.856 32.9805C131.856 34.9945 133.608 36.2873 135.56 36.2873C137.059 36.2873 137.885 35.608 138.4 34.8209H138.481V35.982H140.632V30.2364C140.632 27.5611 138.654 26.0798 136.105 26.0798ZM135.825 34.2943C135.095 34.2943 134.073 33.9352 134.073 33.0135C134.073 31.8524 135.348 31.4125 136.436 31.4125C137.42 31.4125 137.885 31.6249 138.469 31.9182C138.308 33.2648 137.175 34.2823 135.825 34.2943ZM148.482 26.4L145.919 32.9057H145.839L143.184 26.4H140.781L144.766 35.4943L142.495 40.5486H144.82L150.95 26.4H148.482ZM128.39 36H130.622V21.0015H128.39V36Z" fill="black"/>
<path fill-rule="evenodd" clip-rule="evenodd" d="M13.0663 9.04039C12.7205 9.41446 12.5209 9.98603 12.5209 10.7342V37.2688C12.5209 38.017 12.7205 38.5885 13.0782 38.9476L13.1706 39.0284L27.9764 24.1616V23.8294L13.1586 8.95959L13.0663 9.04039Z" fill="url(#paint0_linear_3_832)"/>
<path fill-rule="evenodd" clip-rule="evenodd" d="M32.9026 29.1322L27.9644 24.1736V23.8265L32.9026 18.8679L33.0099 18.9337L38.8512 22.2674C40.5232 23.213 40.5232 24.7751 38.8512 25.7327L33.0099 29.0664L32.9026 29.1322Z" fill="url(#paint1_linear_3_832)"/>
<path fill-rule="evenodd" clip-rule="evenodd" d="M33.0101 29.0663L27.9645 24L13.0663 38.9596C13.6117 39.5461 14.5266 39.612 15.5488 39.0404L33.0101 29.0663Z" fill="url(#paint2_linear_3_832)"/>
<path fill-rule="evenodd" clip-rule="evenodd" d="M33.0101 18.9337L15.5488 8.97458C14.5266 8.38805 13.6087 8.46884 13.0663 9.05538L27.9645 24L33.0101 18.9337Z" fill="url(#paint3_linear_3_832)"/>
<path opacity="0.2" fill-rule="evenodd" clip-rule="evenodd" d="M32.9028 28.9586L15.5607 38.8519C14.5921 39.4115 13.7278 39.3725 13.1705 38.8638L13.0781 38.9566L13.1705 39.0374C13.7278 39.5431 14.5921 39.585 15.5607 39.0254L33.022 29.0663L32.9028 28.9586Z" fill="white"/>
<path opacity="0.12" fill-rule="evenodd" clip-rule="evenodd" d="M38.8513 25.5591L32.8878 28.9586L32.9951 29.0663L38.8364 25.7327C39.6738 25.2539 40.0851 24.6254 40.0851 24C40.0344 24.5746 39.6083 25.1192 38.8513 25.5591Z" fill="white"/>
<path opacity="0.25" fill-rule="evenodd" clip-rule="evenodd" d="M15.5488 9.14819L38.8513 22.441C39.6083 22.8689 40.0345 23.4285 40.1 24.0001C40.1 23.3746 39.6888 22.7462 38.8513 22.2674L15.5488 8.97462C13.8769 8.01402 12.5209 8.81602 12.5209 10.7342V10.9078C12.5209 8.98659 13.8769 8.19956 15.5488 9.14819Z" fill="black"/>
</g>
<defs>
<linearGradient id="paint0_linear_3_832" x1="26.6484" y1="10.4479" x2="2.91907" y2="16.7446" gradientUnits="userSpaceOnUse">
<stop stop-color="#00A0FF"/>
<stop offset="0.00657" stop-color="#00A1FF"/>
<stop offset="0.2601" stop-color="#00BEFF"/>
<stop offset="0.5122" stop-color="#00D2FF"/>
<stop offset="0.7604" stop-color="#00DFFF"/>
<stop offset="1" stop-color="#00E3FF"/>
</linearGradient>
<linearGradient id="paint1_linear_3_832" x1="41.0316" y1="24.0001" x2="12.1143" y2="24.0001" gradientUnits="userSpaceOnUse">
<stop stop-color="#FFE000"/>
<stop offset="0.4087" stop-color="#FFBD00"/>
<stop offset="0.7754" stop-color="#FFA500"/>
<stop offset="1" stop-color="#FF9C00"/>
</linearGradient>
<linearGradient id="paint2_linear_3_832" x1="30.2665" y1="26.7568" x2="11.1112" y2="58.8646" gradientUnits="userSpaceOnUse">
<stop stop-color="#FF3A44"/>
<stop offset="1" stop-color="#C31162"/>
</linearGradient>
<linearGradient id="paint3_linear_3_832" x1="9.31475" y1="0.214566" x2="17.8607" y2="14.5544" gradientUnits="userSpaceOnUse">
<stop stop-color="#32A071"/>
<stop offset="0.0685" stop-color="#2DA771"/>
<stop offset="0.4762" stop-color="#15CF74"/>
<stop offset="0.8009" stop-color="#06E775"/>
<stop offset="1" stop-color="#00F076"/>
</linearGradient>
<clipPath id="clip0_3_832">
<rect width="162" height="48" fill="white" transform="translate(0.596924)"/>
</clipPath>
</defs>
</svg>
