<svg width="319" height="64" viewBox="0 0 319 64" fill="none" xmlns="http://www.w3.org/2000/svg">
  <path d="M0 6C0 2.68629 2.68629 0 6 0H291.705C293.536 0 295.267 0.835949 296.405 2.27005L317.04 28.2701C318.773 30.4545 318.773 33.5455 317.04 35.7299L296.405 61.7299C295.267 63.164 293.536 64 291.705 64H6C2.68629 64 0 61.3137 0 58V6Z" fill="#1176CD"/>
  <path d="M0 6C0 2.68629 2.68629 0 6 0H291.705C293.536 0 295.267 0.835949 296.405 2.27005L317.04 28.2701C318.773 30.4545 318.773 33.5455 317.04 35.7299L296.405 61.7299C295.267 63.164 293.536 64 291.705 64H6C2.68629 64 0 61.3137 0 58V6Z" fill="url(#paint0_linear_151_56885)"/>
  <defs>
    <linearGradient id="paint0_linear_151_56885" x1="8.45283" y1="36.571" x2="315.17" y2="36.571" gradientUnits="userSpaceOnUse">
      <stop stop-color="#FF66C4"/>
      <stop offset="1" stop-color="#BD0074"/>
    </linearGradient>
  </defs>
</svg>
