<svg width="219" height="45" viewBox="0 0 219 45" fill="none" xmlns="http://www.w3.org/2000/svg">
<path d="M0 5.29291V43.3616C0 44.8407 1.81381 45.5597 2.83326 44.4847L19.4872 26.9242C23.0231 23.1958 28.9769 23.1959 32.5128 26.9242L49.1667 44.4847C50.1862 45.5597 52 44.8407 52 43.3616V5.29291C52 0.259974 45.6069 -1.92175 42.5109 2.05464L29.9887 18.1376C27.9675 20.7335 24.0325 20.7335 22.0113 18.1376L9.48913 2.05464C6.39311 -1.92175 0 0.259974 0 5.29291Z" fill="white"/>
<path d="M97.88 9.872V35H92.84V18.656L86.108 35H82.292L75.524 18.656V35H70.484V9.872H76.208L84.2 28.556L92.192 9.872H97.88ZM101.567 24.956C101.567 22.94 101.963 21.152 102.755 19.592C103.571 18.032 104.663 16.832 106.031 15.992C107.423 15.152 108.971 14.732 110.675 14.732C112.163 14.732 113.459 15.032 114.563 15.632C115.691 16.232 116.591 16.988 117.263 17.9V15.056H122.339V35H117.263V32.084C116.615 33.02 115.715 33.8 114.563 34.424C113.435 35.024 112.127 35.324 110.639 35.324C108.959 35.324 107.423 34.892 106.031 34.028C104.663 33.164 103.571 31.952 102.755 30.392C101.963 28.808 101.567 26.996 101.567 24.956ZM117.263 25.028C117.263 23.804 117.023 22.76 116.543 21.896C116.063 21.008 115.415 20.336 114.599 19.88C113.783 19.4 112.907 19.16 111.971 19.16C111.035 19.16 110.171 19.388 109.379 19.844C108.587 20.3 107.939 20.972 107.435 21.86C106.955 22.724 106.715 23.756 106.715 24.956C106.715 26.156 106.955 27.212 107.435 28.124C107.939 29.012 108.587 29.696 109.379 30.176C110.195 30.656 111.059 30.896 111.971 30.896C112.907 30.896 113.783 30.668 114.599 30.212C115.415 29.732 116.063 29.06 116.543 28.196C117.023 27.308 117.263 26.252 117.263 25.028ZM129.817 12.68C128.905 12.68 128.149 12.404 127.549 11.852C126.973 11.276 126.685 10.568 126.685 9.728C126.685 8.888 126.973 8.192 127.549 7.64C128.149 7.064 128.905 6.776 129.817 6.776C130.705 6.776 131.437 7.064 132.013 7.64C132.589 8.192 132.877 8.888 132.877 9.728C132.877 10.568 132.589 11.276 132.013 11.852C131.437 12.404 130.705 12.68 129.817 12.68ZM132.301 38.276C132.301 40.484 131.749 42.068 130.645 43.028C129.565 44.012 128.005 44.504 125.965 44.504H123.733V40.22H125.173C125.941 40.22 126.481 40.064 126.793 39.752C127.105 39.464 127.261 38.984 127.261 38.312V15.056H132.301V38.276ZM146.137 35.324C144.217 35.324 142.489 34.904 140.953 34.064C139.417 33.2 138.205 31.988 137.317 30.428C136.453 28.868 136.021 27.068 136.021 25.028C136.021 22.988 136.465 21.188 137.353 19.628C138.265 18.068 139.501 16.868 141.061 16.028C142.621 15.164 144.361 14.732 146.281 14.732C148.201 14.732 149.941 15.164 151.501 16.028C153.061 16.868 154.285 18.068 155.173 19.628C156.085 21.188 156.541 22.988 156.541 25.028C156.541 27.068 156.073 28.868 155.137 30.428C154.225 31.988 152.977 33.2 151.393 34.064C149.833 34.904 148.081 35.324 146.137 35.324ZM146.137 30.932C147.049 30.932 147.901 30.716 148.693 30.284C149.509 29.828 150.157 29.156 150.637 28.268C151.117 27.38 151.357 26.3 151.357 25.028C151.357 23.132 150.853 21.68 149.845 20.672C148.861 19.64 147.649 19.124 146.209 19.124C144.769 19.124 143.557 19.64 142.573 20.672C141.613 21.68 141.133 23.132 141.133 25.028C141.133 26.924 141.601 28.388 142.537 29.42C143.497 30.428 144.697 30.932 146.137 30.932ZM165.278 18.152C165.926 17.096 166.766 16.268 167.798 15.668C168.854 15.068 170.054 14.768 171.398 14.768V20.06H170.066C168.482 20.06 167.282 20.432 166.466 21.176C165.674 21.92 165.278 23.216 165.278 25.064V35H160.238V15.056H165.278V18.152ZM177.349 12.68C176.461 12.68 175.717 12.404 175.117 11.852C174.541 11.276 174.253 10.568 174.253 9.728C174.253 8.888 174.541 8.192 175.117 7.64C175.717 7.064 176.461 6.776 177.349 6.776C178.237 6.776 178.969 7.064 179.545 7.64C180.145 8.192 180.445 8.888 180.445 9.728C180.445 10.568 180.145 11.276 179.545 11.852C178.969 12.404 178.237 12.68 177.349 12.68ZM179.833 15.056V35H174.793V15.056H179.833ZM190.68 19.196V28.844C190.68 29.516 190.836 30.008 191.148 30.32C191.484 30.608 192.036 30.752 192.804 30.752H195.144V35H191.976C187.728 35 185.604 32.936 185.604 28.808V19.196H183.228V15.056H185.604V10.124H190.68V15.056H195.144V19.196H190.68ZM217.849 15.056L205.501 44.432H200.137L204.457 34.496L196.465 15.056H202.117L207.265 28.988L212.485 15.056H217.849Z" fill="white"/>
</svg>
