<svg width="265" height="45" viewBox="0 0 265 45" fill="none" xmlns="http://www.w3.org/2000/svg">
<path d="M0 5.29291V43.3616C0 44.8407 1.81381 45.5597 2.83326 44.4847L19.4872 26.9242C23.0231 23.1958 28.9769 23.1959 32.5128 26.9242L49.1667 44.4847C50.1862 45.5597 52 44.8407 52 43.3616V5.29291C52 0.259974 45.6069 -1.92175 42.5109 2.05464L29.9887 18.1376C27.9675 20.7335 24.0325 20.7335 22.0113 18.1376L9.48913 2.05464C6.39311 -1.92175 0 0.259974 0 5.29291Z" fill="white"/>
<path d="M79.7 35.4241L74.156 20.5201V35.4241H68V9.57613H76.028L82.544 27.1081L89.024 9.57613H97.052V35.4241H90.896V20.3401L85.316 35.4241H79.7Z" fill="white"/>
<path d="M118.95 35.4241L117.366 30.6361H108.294L106.674 35.4241H99.7976L109.374 9.57613H116.826L126.294 35.4241H118.95ZM112.902 17.0641L110.13 25.2721H115.602L112.902 17.0641Z" fill="white"/>
<path d="M147.499 9.57613V25.7761C147.499 31.5361 144.043 35.9641 137.095 35.9641C130.183 35.9641 126.691 31.5361 126.691 25.7761H133.531C133.531 28.0801 134.035 29.8801 137.095 29.8801C140.119 29.8801 140.659 28.0801 140.659 25.8841V9.57613H147.499Z" fill="white"/>
<path d="M164.183 35.9641C156.731 35.9641 150.863 30.3121 150.863 22.4641C150.863 14.6161 156.731 9.03613 164.183 9.03613C171.671 9.03613 177.539 14.6161 177.539 22.4641C177.539 30.3121 171.671 35.9641 164.183 35.9641ZM164.183 29.8801C168.251 29.8801 170.519 26.5321 170.519 22.4641C170.519 18.3961 168.251 15.1201 164.183 15.1201C160.115 15.1201 157.847 18.3961 157.847 22.4641C157.847 26.5321 160.115 29.8801 164.183 29.8801Z" fill="white"/>
<path d="M187.867 35.4241H181.062V9.57613H191.646C198.63 9.57613 202.626 12.7081 202.626 18.2161C202.626 21.5281 200.646 24.2641 197.154 25.7401L203.49 35.4241H195.391L190.099 26.8201H187.867V35.4241ZM187.867 15.1921V21.2041H191.358C194.382 21.2041 195.786 20.2681 195.786 18.2161C195.786 16.1641 194.382 15.1921 191.358 15.1921H187.867Z" fill="white"/>
<path d="M213.355 35.4241H206.551V9.57613H213.355V35.4241Z" fill="white"/>
<path d="M231.142 35.4241H224.338V15.7321H216.418V9.57613H239.062V15.7321H231.142V35.4241Z" fill="white"/>
<path d="M255.593 25.7041V35.4241H248.789V25.7041L239.753 9.57613H247.097L252.425 19.4761L257.861 9.57613H264.701L255.593 25.7041Z" fill="white"/>
</svg>
