<svg width="18" height="18" viewBox="0 0 18 18" fill="none" xmlns="http://www.w3.org/2000/svg">
  <path d="M15.2378 3.16052C14.0905 2.62337 12.8602 2.22761 11.5739 2.00095C11.5505 1.99658 11.5271 2.00751 11.515 2.02937C11.3568 2.31653 11.1815 2.69115 11.0588 2.98559C9.6753 2.77424 8.29889 2.77424 6.94374 2.98559C6.82099 2.6846 6.63936 2.31653 6.48043 2.02937C6.46836 2.00824 6.44496 1.99731 6.42154 2.00095C5.13593 2.22689 3.90567 2.62264 2.7577 3.16052C2.74776 3.1649 2.73925 3.17219 2.73359 3.18166C0.400044 6.73909 -0.239213 10.2091 0.0743851 13.636C0.075804 13.6528 0.0850274 13.6688 0.0977985 13.679C1.63741 14.8328 3.12878 15.5332 4.59246 15.9974C4.61588 16.0047 4.6407 15.996 4.65561 15.9763C5.00184 15.4938 5.31048 14.9851 5.57511 14.4501C5.59072 14.4188 5.57582 14.3816 5.5439 14.3692C5.05435 14.1797 4.5882 13.9487 4.1398 13.6863C4.10433 13.6652 4.10149 13.6134 4.13412 13.5887C4.22848 13.5165 4.32286 13.4414 4.41297 13.3656C4.42927 13.3518 4.45198 13.3489 4.47115 13.3576C7.41696 14.73 10.6062 14.73 13.5172 13.3576C13.5364 13.3481 13.5591 13.3511 13.5761 13.3649C13.6662 13.4407 13.7606 13.5165 13.8557 13.5887C13.8883 13.6134 13.8862 13.6652 13.8507 13.6863C13.4023 13.9538 12.9361 14.1797 12.4459 14.3685C12.414 14.3809 12.3998 14.4188 12.4154 14.4501C12.6857 14.9844 12.9943 15.4931 13.3342 15.9756C13.3484 15.996 13.3739 16.0047 13.3973 15.9974C14.8681 15.5332 16.3595 14.8328 17.8991 13.679C17.9126 13.6688 17.9211 13.6535 17.9225 13.6368C18.2978 9.67482 17.2939 6.23329 15.2612 3.18238C15.2562 3.17219 15.2477 3.1649 15.2378 3.16052ZM6.01502 11.5494C5.12812 11.5494 4.39735 10.7185 4.39735 9.69815C4.39735 8.67778 5.11395 7.84693 6.01502 7.84693C6.92315 7.84693 7.64686 8.68508 7.63266 9.69815C7.63266 10.7185 6.91606 11.5494 6.01502 11.5494ZM11.9961 11.5494C11.1092 11.5494 10.3784 10.7185 10.3784 9.69815C10.3784 8.67778 11.095 7.84693 11.9961 7.84693C12.9042 7.84693 13.6279 8.68508 13.6137 9.69815C13.6137 10.7185 12.9042 11.5494 11.9961 11.5494Z" fill="white"/>
</svg>