<svg width="1000" height="800" viewBox="0 0 1000 800" fill="none" xmlns="http://www.w3.org/2000/svg">
<rect width="1000" height="800" fill="url(#paint0_radial_862_356)"/>
<g filter="url(#filter0_f_862_356)">
<path d="M342.568 222.983V454.296C342.568 463.283 353.551 467.652 359.724 461.12L460.564 354.419C481.974 331.765 518.025 331.765 539.436 354.419L640.276 461.12C646.449 467.652 657.432 463.283 657.432 454.296V222.983C657.432 192.402 618.721 179.146 599.975 203.307L524.152 301.03C511.914 316.803 488.086 316.803 475.848 301.03L400.025 203.307C381.279 179.146 342.568 192.402 342.568 222.983Z" fill="#FFFFE5" fill-opacity="0.5"/>
</g>
<g filter="url(#filter1_d_862_356)">
<path d="M342.568 222.983V454.296C342.568 463.283 353.551 467.652 359.724 461.12L460.564 354.419C481.974 331.765 518.025 331.765 539.436 354.419L640.276 461.12C646.449 467.652 657.432 463.283 657.432 454.296V222.983C657.432 192.402 618.721 179.146 599.975 203.307L524.152 301.03C511.914 316.803 488.086 316.803 475.848 301.03L400.025 203.307C381.279 179.146 342.568 192.402 342.568 222.983Z" fill="#FFFFE5"/>
</g>
<path d="M235.3 612.271H216.191V544.171H242.11L254.612 572.427L261.32 590.011H262.641L269.045 572.427L280.937 544.171H306.855V612.271H287.747V584.116L288.458 572.732H287.137L283.275 584.116L273.11 608.205H249.936L239.772 584.116L235.91 572.732H234.588L235.3 584.116V612.271ZM330.349 612.271H308.903L338.277 544.171H365.619L395.095 612.271H373.14L356.979 572.935L352.507 561.45H351.186L346.815 572.935L330.349 612.271ZM376.494 599.667H326.284V582.49H376.494V599.667ZM426.921 613.287C419.196 613.287 412.996 612.135 408.321 609.831C403.645 607.527 400.257 604.139 398.157 599.667C396.124 595.195 395.107 589.672 395.107 583.1V580.457H415.436V582.896C415.436 585.946 415.639 588.351 416.045 590.113C416.452 591.807 417.434 593.026 418.993 593.772C420.619 594.449 423.262 594.788 426.921 594.788C430.58 594.788 433.223 594.483 434.849 593.873C436.475 593.196 437.492 592.078 437.898 590.519C438.372 588.893 438.61 586.691 438.61 583.913V544.171H458.938V584.116C458.938 590.418 457.888 595.737 455.787 600.074C453.686 604.41 450.298 607.697 445.623 609.933C440.947 612.169 434.713 613.287 426.921 613.287ZM501.328 613.287C493.468 613.287 486.692 611.864 481 609.018C475.376 606.104 471.073 602.039 468.092 596.821C465.11 591.536 463.62 585.336 463.62 578.221C463.62 571.106 465.11 564.94 468.092 559.722C471.073 554.437 475.376 550.371 481 547.525C486.692 544.612 493.468 543.155 501.328 543.155C509.46 543.155 516.337 544.612 521.962 547.525C527.653 550.371 531.99 554.437 534.972 559.722C537.953 564.94 539.444 571.106 539.444 578.221C539.444 585.336 537.953 591.536 534.972 596.821C531.99 602.039 527.653 606.104 521.962 609.018C516.337 611.864 509.46 613.287 501.328 613.287ZM501.328 594.992C505.936 594.992 509.528 594.551 512.102 593.67C514.677 592.722 516.473 591.028 517.489 588.588C518.574 586.149 519.116 582.693 519.116 578.221C519.116 573.681 518.574 570.225 517.489 567.853C516.473 565.414 514.677 563.754 512.102 562.873C509.528 561.924 505.936 561.45 501.328 561.45C496.721 561.45 493.163 561.924 490.656 562.873C488.149 563.754 486.387 565.414 485.371 567.853C484.422 570.225 483.948 573.681 483.948 578.221C483.948 582.693 484.422 586.149 485.371 588.588C486.387 591.028 488.149 592.722 490.656 593.67C493.163 594.551 496.721 594.992 501.328 594.992ZM563.648 612.271H544.539V544.171H584.281C590.312 544.171 595.36 544.984 599.425 546.61C603.491 548.237 606.54 550.608 608.573 553.725C610.674 556.775 611.724 560.535 611.724 565.007C611.724 568.599 611.08 571.716 609.793 574.358C608.573 576.933 606.608 579.034 603.898 580.66C601.187 582.219 597.664 583.269 593.327 583.811V584.827C596.851 585.708 599.358 587.03 600.848 588.791C602.407 590.485 603.83 592.62 605.117 595.195L613.554 612.271H591.497L583.366 595.601C582.553 593.907 581.706 592.586 580.825 591.637C579.944 590.689 578.792 590.045 577.369 589.706C575.946 589.3 573.981 589.096 571.474 589.096H563.648V612.271ZM563.648 561.348V574.867H584.078C586.856 574.867 588.821 574.46 589.973 573.647C591.125 572.834 591.701 570.97 591.701 568.057C591.701 565.346 591.125 563.551 589.973 562.67C588.821 561.789 586.856 561.348 584.078 561.348H563.648ZM635.71 612.271H616.601V544.171H635.71V612.271ZM683.486 612.271H664.377V544.171H683.486V612.271ZM707.473 561.348H640.288V544.171H707.473V561.348ZM757.115 590.824H738.21L707.514 544.171H731.197L741.462 560.332L747.256 569.886H748.577L754.371 560.332L764.636 544.171H788.42L757.115 590.824ZM757.217 612.271H738.108V579.949H757.217V612.271Z" fill="#FFFFE5"/>
<defs>
<filter id="filter0_f_862_356" x="268.728" y="116.983" width="462.544" height="421.108" filterUnits="userSpaceOnUse" color-interpolation-filters="sRGB">
<feFlood flood-opacity="0" result="BackgroundImageFix"/>
<feBlend mode="normal" in="SourceGraphic" in2="BackgroundImageFix" result="shape"/>
<feGaussianBlur stdDeviation="36.9199" result="effect1_foregroundBlur_862_356"/>
</filter>
<filter id="filter1_d_862_356" x="334.209" y="182.464" width="331.582" height="290.147" filterUnits="userSpaceOnUse" color-interpolation-filters="sRGB">
<feFlood flood-opacity="0" result="BackgroundImageFix"/>
<feColorMatrix in="SourceAlpha" type="matrix" values="0 0 0 0 0 0 0 0 0 0 0 0 0 0 0 0 0 0 127 0" result="hardAlpha"/>
<feOffset/>
<feGaussianBlur stdDeviation="4.17961"/>
<feComposite in2="hardAlpha" operator="out"/>
<feColorMatrix type="matrix" values="0 0 0 0 0.447975 0 0 0 0 0.171724 0 0 0 0 0 0 0 0 0.22 0"/>
<feBlend mode="normal" in2="BackgroundImageFix" result="effect1_dropShadow_862_356"/>
<feBlend mode="normal" in="SourceGraphic" in2="effect1_dropShadow_862_356" result="shape"/>
</filter>
<radialGradient id="paint0_radial_862_356" cx="0" cy="0" r="1" gradientUnits="userSpaceOnUse" gradientTransform="translate(500 400) scale(713.333 734.37)">
<stop stop-color="#FFA600"/>
<stop offset="1" stop-color="#FF6F00"/>
</radialGradient>
</defs>
</svg>
