<svg width="22" height="17" viewBox="0 0 22 17" fill="none" xmlns="http://www.w3.org/2000/svg">
<path d="M18.3629 2.10161C17.0329 1.48161 15.5929 1.03161 14.0929 0.771606C14.0665 0.771982 14.0414 0.782765 14.0229 0.801607C13.8429 1.13161 13.6329 1.56161 13.4929 1.89161C11.9019 1.65176 10.2839 1.65176 8.69289 1.89161C8.55289 1.55161 8.34289 1.13161 8.15289 0.801607C8.14289 0.781607 8.11289 0.771606 8.08289 0.771606C6.58289 1.03161 5.15289 1.48161 3.81289 2.10161C3.80289 2.10161 3.79289 2.11161 3.78289 2.12161C1.06289 6.19161 0.312891 10.1516 0.682891 14.0716C0.682891 14.0916 0.692891 14.1116 0.712891 14.1216C2.51289 15.4416 4.24289 16.2416 5.95289 16.7716C5.98289 16.7816 6.01289 16.7716 6.02289 16.7516C6.42289 16.2016 6.78289 15.6216 7.09289 15.0116C7.11289 14.9716 7.09289 14.9316 7.05289 14.9216C6.48289 14.7016 5.94289 14.4416 5.41289 14.1416C5.37289 14.1216 5.37289 14.0616 5.40289 14.0316C5.51289 13.9516 5.62289 13.8616 5.73289 13.7816C5.75289 13.7616 5.78289 13.7616 5.80289 13.7716C9.24289 15.3416 12.9529 15.3416 16.3529 13.7716C16.3729 13.7616 16.4029 13.7616 16.4229 13.7816C16.5329 13.8716 16.6429 13.9516 16.7529 14.0416C16.7929 14.0716 16.7929 14.1316 16.7429 14.1516C16.2229 14.4616 15.6729 14.7116 15.1029 14.9316C15.0629 14.9416 15.0529 14.9916 15.0629 15.0216C15.3829 15.6316 15.7429 16.2116 16.1329 16.7616C16.1629 16.7716 16.1929 16.7816 16.2229 16.7716C17.9429 16.2416 19.6729 15.4416 21.4729 14.1216C21.4929 14.1116 21.5029 14.0916 21.5029 14.0716C21.9429 9.5416 20.7729 5.61161 18.4029 2.12161C18.3929 2.11161 18.3829 2.10161 18.3629 2.10161ZM7.61289 11.6816C6.58289 11.6816 5.72289 10.7316 5.72289 9.56161C5.72289 8.39161 6.56289 7.44161 7.61289 7.44161C8.67289 7.44161 9.51289 8.40161 9.50289 9.56161C9.50289 10.7316 8.66289 11.6816 7.61289 11.6816ZM14.5829 11.6816C13.5529 11.6816 12.6929 10.7316 12.6929 9.56161C12.6929 8.39161 13.5329 7.44161 14.5829 7.44161C15.6429 7.44161 16.4829 8.40161 16.4729 9.56161C16.4729 10.7316 15.6429 11.6816 14.5829 11.6816Z" fill="white"/>
</svg>
