<svg width="101" height="101" viewBox="0 0 101 101" fill="none" xmlns="http://www.w3.org/2000/svg">
<rect x="0.787598" y="0.779297" width="99.4248" height="99.4248" rx="21.542" fill="url(#paint0_radial_3683_15309)"/>
<g filter="url(#filter0_f_3683_15309)">
<path d="M16.3641 28.6318V78.7872C16.3641 80.7358 18.7455 81.6831 20.084 80.2668L41.9492 57.131C46.5915 52.2189 54.4084 52.2189 59.0508 57.131L80.916 80.2668C82.2545 81.6831 84.6358 80.7358 84.6358 78.7872V28.6318C84.6358 22.001 76.2422 19.1266 72.1774 24.3654L55.7368 45.5546C53.0832 48.9747 47.9168 48.9747 45.2631 45.5546L28.8226 24.3654C24.7578 19.1266 16.3641 22.001 16.3641 28.6318Z" fill="#FFFFE5" fill-opacity="0.5"/>
</g>
<g filter="url(#filter1_d_3683_15309)">
<path d="M16.3641 28.6318V78.7872C16.3641 80.7358 18.7455 81.6831 20.084 80.2668L41.9492 57.131C46.5915 52.2189 54.4084 52.2189 59.0508 57.131L80.916 80.2668C82.2545 81.6831 84.6358 80.7358 84.6358 78.7872V28.6318C84.6358 22.001 76.2422 19.1266 72.1774 24.3654L55.7368 45.5546C53.0832 48.9747 47.9168 48.9747 45.2631 45.5546L28.8226 24.3654C24.7578 19.1266 16.3641 22.001 16.3641 28.6318Z" fill="#FFFFE5"/>
</g>
<defs>
<filter id="filter0_f_3683_15309" x="7.58161" y="12.8759" width="85.8368" height="76.8524" filterUnits="userSpaceOnUse" color-interpolation-filters="sRGB">
<feFlood flood-opacity="0" result="BackgroundImageFix"/>
<feBlend mode="normal" in="SourceGraphic" in2="BackgroundImageFix" result="shape"/>
<feGaussianBlur stdDeviation="4.39126" result="effect1_foregroundBlur_3683_15309"/>
</filter>
<filter id="filter1_d_3683_15309" x="15.3699" y="20.6642" width="70.2602" height="61.2758" filterUnits="userSpaceOnUse" color-interpolation-filters="sRGB">
<feFlood flood-opacity="0" result="BackgroundImageFix"/>
<feColorMatrix in="SourceAlpha" type="matrix" values="0 0 0 0 0 0 0 0 0 0 0 0 0 0 0 0 0 0 127 0" result="hardAlpha"/>
<feOffset/>
<feGaussianBlur stdDeviation="0.497124"/>
<feComposite in2="hardAlpha" operator="out"/>
<feColorMatrix type="matrix" values="0 0 0 0 0.447975 0 0 0 0 0.171724 0 0 0 0 0 0 0 0 0.22 0"/>
<feBlend mode="normal" in2="BackgroundImageFix" result="effect1_dropShadow_3683_15309"/>
<feBlend mode="normal" in="SourceGraphic" in2="effect1_dropShadow_3683_15309" result="shape"/>
</filter>
<radialGradient id="paint0_radial_3683_15309" cx="0" cy="0" r="1" gradientUnits="userSpaceOnUse" gradientTransform="translate(50.5 50.4917) scale(70.923 91.2683)">
<stop stop-color="#FFA600"/>
<stop offset="1" stop-color="#FF6F00"/>
</radialGradient>
</defs>
</svg>
