<svg width="33" height="33" viewBox="0 0 33 33" fill="none" xmlns="http://www.w3.org/2000/svg">
<path d="M19.9944 23.7812H22.1624L12.1829 9.81342H10.0149L19.9944 23.7812Z" fill="white"/>
<path fill-rule="evenodd" clip-rule="evenodd" d="M5.09473 0.773682C2.33331 0.773682 0.0947266 3.01227 0.0947266 5.77368V27.7737C0.0947266 30.5351 2.33331 32.7737 5.09473 32.7737H27.0947C29.8561 32.7737 32.0947 30.5351 32.0947 27.7737V5.77368C32.0947 3.01227 29.8561 0.773682 27.0947 0.773682H5.09473ZM23.5733 8.77368L17.6165 15.5486L24.0947 24.7737H19.3304L14.9679 18.5615L9.50629 24.7737H8.09473L14.3413 17.6692L8.09473 8.77368H12.8591L16.9899 14.6562L22.1618 8.77368H23.5733Z" fill="white"/>
</svg>
